<svg width="20" height="20" viewBox="0 0 20 20" fill="none" xmlns="http://www.w3.org/2000/svg">
<path d="M7.7952 17.5003C8.38281 18.019 9.15468 18.3337 10.0001 18.3337C10.8454 18.3337 11.6173 18.019 12.2049 17.5003M15.0001 6.66699C15.0001 5.34091 14.4733 4.06914 13.5356 3.13146C12.5979 2.19378 11.3261 1.66699 10.0001 1.66699C8.67397 1.66699 7.4022 2.19378 6.46452 3.13146C5.52684 4.06914 5.00006 5.34091 5.00006 6.66699C5.00006 9.24215 4.35045 11.0053 3.62478 12.1715C3.01266 13.1552 2.7066 13.6471 2.71783 13.7843C2.73025 13.9362 2.76244 13.9942 2.88487 14.085C2.99544 14.167 3.49388 14.167 4.49077 14.167H15.5093C16.5062 14.167 17.0047 14.167 17.1152 14.085C17.2377 13.9942 17.2699 13.9362 17.2823 13.7843C17.2935 13.6471 16.9875 13.1552 16.3753 12.1715C15.6497 11.0053 15.0001 9.24215 15.0001 6.66699Z" stroke="#D0D5DD" stroke-width="1.66667" stroke-linecap="round" stroke-linejoin="round"/>
</svg>
