<svg width="24" height="24" viewBox="0 0 24 24" fill="none" xmlns="http://www.w3.org/2000/svg">
<path d="M9 7.00047H11V17.0005H9V13.0005H5V17.0005H3V7.00047H5V11.0005H9V7.00047ZM17 15.0005C17.51 14.5905 17.6 14.3805 18.06 13.9505C18.497 13.5505 18.908 13.1225 19.29 12.6705C19.6237 12.2795 19.9091 11.8497 20.14 11.3905C20.339 11.0005 20.445 10.5685 20.45 10.1305C20.455 9.68916 20.3628 9.25216 20.18 8.85047C20.0027 8.46566 19.7433 8.12433 19.42 7.85047C19.074 7.56738 18.6768 7.35349 18.25 7.22047C17.7649 7.06758 17.2585 6.9933 16.75 7.00047C16.391 7.00047 16.033 7.03347 15.68 7.10047C15.3373 7.16131 15.0021 7.25853 14.68 7.39047C14.3759 7.52118 14.0875 7.68553 13.82 7.88047C13.533 8.09047 13.259 8.31747 13 8.56047L14.24 9.78047C14.5479 9.51279 14.8831 9.27817 15.24 9.08047C15.59 8.87947 15.987 8.77647 16.39 8.78047C16.8451 8.75146 17.2956 8.88625 17.66 9.16047C17.971 9.43847 18.137 9.84447 18.11 10.2605C18.0958 10.6568 17.9711 11.0413 17.75 11.3705C17.4647 11.8234 17.1292 12.2427 16.75 12.6205C16.31 13.0505 15.77 13.5405 15.16 14.0505C14.55 14.5605 13.75 15.1105 13 15.7005V17.0005H21V15.0005H17Z" fill="currentColor"/>
</svg>
