<svg width="24" height="24" viewBox="0 0 24 24" fill="none" xmlns="http://www.w3.org/2000/svg">
<path d="M14.11 14.2177C14.465 14.5047 14.859 14.7407 15.28 14.9177C15.714 15.0987 16.18 15.1907 16.65 15.1877C17.134 15.2047 17.615 15.1017 18.05 14.8877C18.2132 14.816 18.3521 14.6984 18.4497 14.5493C18.5473 14.4002 18.5996 14.2259 18.6 14.0477C18.6028 13.8444 18.551 13.6441 18.45 13.4677C18.3268 13.2766 18.1492 13.1268 17.94 13.0377C17.6212 12.9006 17.2845 12.8097 16.94 12.7677C16.4367 12.6949 15.9285 12.6614 15.42 12.6677V11.0977C16.1616 11.1498 16.905 11.0265 17.59 10.7377C17.7716 10.6572 17.9269 10.5274 18.0383 10.363C18.1497 10.1985 18.2127 10.0061 18.22 9.80765C18.2328 9.65123 18.2044 9.49418 18.1378 9.35209C18.0711 9.21 17.9685 9.08781 17.84 8.99765C17.4994 8.79445 17.1061 8.69699 16.71 8.71765C16.3146 8.73046 15.9263 8.82584 15.57 8.99765C15.1949 9.1646 14.8394 9.37254 14.51 9.61765L13.29 8.22765C13.7908 7.85073 14.3431 7.54764 14.93 7.32765C15.5381 7.10356 16.1819 6.99175 16.83 6.99765C17.355 6.9906 17.8789 7.04769 18.39 7.16765C18.821 7.26865 19.23 7.44465 19.6 7.68765C19.925 7.89865 20.195 8.18265 20.39 8.51765C20.58 8.85965 20.677 9.24665 20.67 9.63765C20.681 10.1177 20.493 10.5807 20.15 10.9177C19.7329 11.3087 19.2343 11.6024 18.69 11.7777V11.8377C19.299 11.9777 19.865 12.2627 20.34 12.6677C20.777 13.0497 21.02 13.6077 21 14.1877C21.005 14.6087 20.887 15.0227 20.66 15.3777C20.4293 15.7343 20.1218 16.035 19.76 16.2577C19.3524 16.5108 18.9067 16.6965 18.44 16.8077C17.9265 16.9357 17.3992 16.9995 16.87 16.9977C16.0838 17.0168 15.3008 16.8914 14.56 16.6277C13.9698 16.4132 13.4338 16.0719 12.99 15.6277L14.11 14.2177ZM9 10.9997H5V6.99965H3V16.9997H5V12.9997H9V16.9997H11V6.99965H9V10.9997Z" fill="currentColor"/>
</svg>
