<svg width="18" height="18" viewBox="0 0 18 18" fill="none" xmlns="http://www.w3.org/2000/svg">
<path d="M16.347 7.90939L12.972 11.2844C12.8134 11.4429 12.5985 11.532 12.3743 11.532C12.1501 11.532 11.9351 11.4429 11.7766 11.2844C11.6181 11.1259 11.5291 10.9109 11.5291 10.6867C11.5291 10.4626 11.6181 10.2476 11.7766 10.0891L13.7109 8.15619H11.6016C10.2918 8.15576 9.01913 8.59068 7.98357 9.39255C6.94802 10.1944 6.20837 11.3177 5.88094 12.5859C5.85324 12.6932 5.80467 12.794 5.73802 12.8825C5.67137 12.971 5.58793 13.0455 5.49248 13.1018C5.39702 13.1581 5.29142 13.195 5.18169 13.2105C5.07196 13.226 4.96026 13.2197 4.85297 13.192C4.74567 13.1643 4.64489 13.1157 4.55636 13.0491C4.46783 12.9824 4.3933 12.899 4.33702 12.8035C4.28074 12.7081 4.24381 12.6025 4.22835 12.4927C4.21288 12.383 4.21917 12.2713 4.24688 12.164C4.66718 10.5333 5.61793 9.08861 6.94942 8.05753C8.28091 7.02646 9.91752 6.46751 11.6016 6.46869H13.7109L11.778 4.53369C11.6195 4.37518 11.5305 4.1602 11.5305 3.93603C11.5305 3.71187 11.6195 3.49689 11.778 3.33838C11.9366 3.17987 12.1515 3.09082 12.3757 3.09082C12.5999 3.09082 12.8149 3.17987 12.9734 3.33838L16.3484 6.71338C16.427 6.79187 16.4894 6.88513 16.532 6.98781C16.5745 7.09048 16.5963 7.20054 16.5962 7.31168C16.596 7.42281 16.574 7.53282 16.5312 7.6354C16.4884 7.73797 16.4258 7.83109 16.347 7.90939ZM13.5 14.3437H3.09375V6.18744C3.09375 5.96366 3.00486 5.74905 2.84662 5.59082C2.68839 5.43258 2.47378 5.34369 2.25 5.34369C2.02622 5.34369 1.81161 5.43258 1.65338 5.59082C1.49514 5.74905 1.40625 5.96366 1.40625 6.18744V15.1874C1.40625 15.4112 1.49514 15.6258 1.65338 15.7841C1.81161 15.9423 2.02622 16.0312 2.25 16.0312H13.5C13.7238 16.0312 13.9384 15.9423 14.0966 15.7841C14.2549 15.6258 14.3438 15.4112 14.3438 15.1874C14.3438 14.9637 14.2549 14.7491 14.0966 14.5908C13.9384 14.4326 13.7238 14.3437 13.5 14.3437Z" fill="white"/>
</svg>
